<svg xmlns="http://www.w3.org/2000/svg" width="29" height="29" viewBox="0 0 29 29">
  <g id="Group_1623" data-name="Group 1623" transform="translate(0 -1020.36)">
    <circle id="Ellipse_296" data-name="Ellipse 296" cx="14.5" cy="14.5" r="14.5" transform="translate(0 1020.36)" fill="#3a6c87"/>
    <path id="Path_1428" data-name="Path 1428" d="M19.436,29.118q.54-.156,1.067-.354.676-.262,1.324-.591t1.257-.722q.61-.392,1.179-.843t1.089-.956a14.5,14.5,0,0,0,.989-1.062q.467-.554.876-1.152a14.5,14.5,0,0,0,.758-1.237q.347-.636.63-1.3t.5-1.361l.023-.092-7.914-7.914v0a.453.453,0,0,0-.034-.6l-1.6-1.6a.453.453,0,0,0-.6-.034l-.7.556L16.832,8.4a.453.453,0,0,0-.45-.4H14.117a.453.453,0,0,0-.45.4l-.161,1.423a5.705,5.705,0,0,0-.858.356l-1.12-.892a.453.453,0,0,0-.6.034l-1.6,1.6a.453.453,0,0,0-.034.6l.894,1.124a5.727,5.727,0,0,0-.356.858L8.4,13.666a.453.453,0,0,0-.4.453v2.264a.453.453,0,0,0,.4.451l1.443,1.443-.556.7a.453.453,0,0,0,.034.6l1.6,1.6a.453.453,0,0,0,.6.032ZM12.8,11.09l.9.9c-.021.01-.04.022-.06.032l-.012.007.242-.112c.026-.009-1.091-.81-1.067-.824Zm-1.678,1.636.9.9c-.012.024-.027.046-.039.071l.205-.422c.014-.024-1.078-.525-1.069-.551Z" transform="translate(-0.75 1019.612)" fill="#2f4b6c"/>
    <path id="Path_1429" data-name="Path 1429" d="M6.117,0a.453.453,0,0,0-.45.4L5.507,1.827a5.7,5.7,0,0,0-.858.356L3.528,1.29a.453.453,0,0,0-.6.034l-1.6,1.6a.453.453,0,0,0-.034.6L2.182,4.65a5.726,5.726,0,0,0-.356.858L.4,5.666a.453.453,0,0,0-.4.453V8.383a.453.453,0,0,0,.4.451l1.423.159a5.719,5.719,0,0,0,.358.858l-.894,1.12a.453.453,0,0,0,.034.6l1.6,1.6a.453.453,0,0,0,.6.032l1.12-.892a5.727,5.727,0,0,0,.858.356L5.668,14.1a.453.453,0,0,0,.45.4H8.383a.453.453,0,0,0,.45-.4l.161-1.423a5.725,5.725,0,0,0,.858-.356l1.12.892a.453.453,0,0,0,.6-.034l1.6-1.6a.453.453,0,0,0,.034-.6l-.894-1.12a5.732,5.732,0,0,0,.356-.858L14.1,8.834a.453.453,0,0,0,.4-.451V6.119a.453.453,0,0,0-.4-.451l-1.423-.159a5.722,5.722,0,0,0-.358-.858l.894-1.122a.453.453,0,0,0-.034-.6l-1.6-1.6a.453.453,0,0,0-.6-.034l-1.12.892a5.716,5.716,0,0,0-.858-.356L8.832.4a.453.453,0,0,0-.45-.4Zm.4.906H7.977L8.123,2.19a.453.453,0,0,0,.336.388A4.828,4.828,0,0,1,9.7,3.09a.453.453,0,0,0,.513-.035l1.009-.8L12.25,3.28l-.8,1.011a.453.453,0,0,0-.037.512,4.842,4.842,0,0,1,.515,1.241.453.453,0,0,0,.388.335l1.281.145V7.979l-1.282.145a.453.453,0,0,0-.388.336A4.837,4.837,0,0,1,11.41,9.7a.453.453,0,0,0,.037.512l.8,1.011L11.22,12.25l-1.009-.8a.453.453,0,0,0-.513-.035,4.831,4.831,0,0,1-1.239.515.453.453,0,0,0-.336.388l-.145,1.28H6.523l-.145-1.282a.453.453,0,0,0-.336-.388A4.828,4.828,0,0,1,4.8,11.411a.453.453,0,0,0-.513.035l-1.009.8L2.25,11.222l.8-1.011A.453.453,0,0,0,3.09,9.7a4.833,4.833,0,0,1-.515-1.239.453.453,0,0,0-.388-.336L.906,7.979V6.523l1.281-.145a.453.453,0,0,0,.388-.336A4.834,4.834,0,0,1,3.09,4.8a.453.453,0,0,0-.037-.512L2.25,3.28,3.28,2.251l1.009.8A.453.453,0,0,0,4.8,3.09a4.836,4.836,0,0,1,1.239-.517.453.453,0,0,0,.336-.386ZM7.25,3.625A3.625,3.625,0,1,0,10.875,7.25,3.632,3.632,0,0,0,7.25,3.625Zm0,.906A2.719,2.719,0,1,1,4.531,7.25,2.712,2.712,0,0,1,7.25,4.531Z" transform="translate(7.25 1027.612)" fill="#fff"/>
  </g>
</svg>
